<svg id="_x33_0" enable-background="new 0 0 64 64" height="512" viewBox="0 0 64 64" width="512" xmlns="http://www.w3.org/2000/svg"><g><path d="m61.553 53.658-9.317-4.658h-18.26c.442-.584.772-1.257.923-2h22.101c1.103 0 2-.897 2-2v-21.641c2.46-2.367 4-5.684 4-9.359 0-7.168-5.832-13-13-13-4.59 0-8.623 2.398-10.937 6h-.063c-3.193 0-6.36.98-9 2.772-2.64-1.792-5.807-2.772-9-2.772h-4v-6.387l-4 1.333-4-1.333v6.387h-2c-1.103 0-2 .897-2 2h-2c-1.103 0-2 .897-2 2v34c0 1.103.897 2 2 2h22.101c.151.743.481 1.416.923 2h-20.024c-2.757 0-5 2.243-5 5v4c0 2.757 2.243 5 5 5h46.236l9.317-4.658c.892-.447 1.447-1.345 1.447-2.342s-.555-1.895-1.447-2.342zm-10.553 1.342h-36v-4h36zm-38 6h-2v-10h2zm2-4h36v4h-36zm38-5.382 4 2v4.763l-4 2zm-3-26.618c-.552 0-1-.449-1-1s.448-1 1-1h6c.121 0 .235-.022.352-.036-1.796 1.277-3.985 2.036-6.352 2.036zm-5 .997v1.003h-8v-6h2.063c1.421 2.212 3.486 3.972 5.937 4.997zm-2 3.003h4v-2.363c.65.154 1.317.26 2 .313v7.05h-6zm15.964-8.648c.014-.117.036-.231.036-.352 0-1.654-1.346-3-3-3h-2c-.552 0-1-.449-1-1s.448-1 1-1h6.949c-.179 1.983-.89 3.812-1.985 5.352zm.822-11.352h-1.786c-.552 0-1-.449-1-1s.448-1 1-1h.479c.507.613.941 1.286 1.307 2zm-3.076-3.697c-1.008.484-1.71 1.506-1.71 2.697 0 1.654 1.346 3 3 3h2.574c.183.645.313 1.313.376 2h-6.95c-1.654 0-3 1.346-3 3s1.346 3 3 3h2c.552 0 1 .449 1 1s-.448 1-1 1h-6c-1.654 0-3 1.346-3 3 0 .202.021.398.06.589-2.984-.83-5.457-2.883-6.845-5.589h5.785c1.654 0 3-1.346 3-3s-1.346-3-3-3h-2c-.552 0-1-.449-1-1s.448-1 1-1h4c1.654 0 3-1.346 3-3s-1.346-3-3-3h-4.305c1.788-1.256 3.959-2 6.305-2 2.527 0 4.851.865 6.71 2.303zm-15.189 1.697h6.479c.552 0 1 .449 1 1s-.448 1-1 1h-4c-1.654 0-3 1.346-3 3s1.346 3 3 3h2c.552 0 1 .449 1 1s-.448 1-1 1h-6.574c-.271-.955-.426-1.959-.426-3 0-2.657.947-5.097 2.521-7zm-3.518 12h-3.003v10h6v7h10v-9.051c.683-.052 1.35-.158 2-.313v12.364h-14c-2.8 0-5.579.753-8 2.146v-29.621c2.058-1.432 4.49-2.299 6.988-2.483-.634 1.529-.988 3.202-.988 4.958 0 1.771.359 3.46 1.003 5zm-27.003-15.613 2 .667 2-.667v3.613h-4zm-4 5.613h14c2.847 0 5.664.9 8 2.525v29.622c-2.421-1.394-5.2-2.147-8-2.147h-14zm20 37v-1h-24v-34h2v28c0 1.103.897 2 2 2h14c3.009 0 5.992.994 8.4 2.8l.6.45.6-.45c2.408-1.806 5.392-2.8 8.4-2.8h14c1.103 0 2-.897 2-2v-13.003c.701-.293 1.367-.654 2-1.06v20.063h-24v1c0 1.654-1.346 3-3 3s-3-1.346-3-3zm-24 12v-4c0-1.654 1.346-3 3-3h3v10h-3c-1.654 0-3-1.346-3-3zm57.658-1.447-1.658.829v-2.763l1.657.829c.212.105.343.317.343.552s-.131.447-.342.553z"/><path d="m25 13h-16v6h16zm-2 4h-12v-2h12z"/><path d="m9 21h16v2h-16z"/><path d="m25 35v-8h-10v-2h-6v6h2v4zm-2-6v4h-10v-2h2v-2zm-12-2h2v2h-2z"/><path d="m35 31h4v2h-4z"/><path d="m35 34h4v2h-4z"/></g></svg>