<?xml version="1.0" encoding="iso-8859-1"?>
<!-- Generator: Adobe Illustrator 19.1.0, SVG Export Plug-In . SVG Version: 6.00 Build 0)  -->
<svg xmlns="http://www.w3.org/2000/svg" xmlns:xlink="http://www.w3.org/1999/xlink" version="1.1" id="Capa_1" x="0px" y="0px" viewBox="0 0 64.48 64.48" style="enable-background:new 0 0 64.48 64.48;" xml:space="preserve" width="512px" height="512px">
<g>
	<g>
		<path d="M32.24,48.24c20.273,0,31.345-14.779,31.807-15.409l0.433-0.591l-0.434-0.591C63.585,31.019,52.513,16.24,32.24,16.24    S0.895,31.019,0.433,31.649L0,32.24l0.434,0.591C0.895,33.461,11.967,48.24,32.24,48.24z M32.24,18.24    c16.983,0,27.434,11.265,29.719,14c-2.285,2.735-12.736,14-29.719,14s-27.434-11.265-29.719-14    C4.806,29.505,15.257,18.24,32.24,18.24z" fill="#FFFFFF"/>
		<path d="M32.24,40.24c4.411,0,8-3.589,8-8s-3.589-8-8-8s-8,3.589-8,8S27.829,40.24,32.24,40.24z M32.24,26.24c3.309,0,6,2.691,6,6    s-2.691,6-6,6s-6-2.691-6-6S28.931,26.24,32.24,26.24z" fill="#FFFFFF"/>
	</g>
</g>
<g>
</g>
<g>
</g>
<g>
</g>
<g>
</g>
<g>
</g>
<g>
</g>
<g>
</g>
<g>
</g>
<g>
</g>
<g>
</g>
<g>
</g>
<g>
</g>
<g>
</g>
<g>
</g>
<g>
</g>
</svg>
